# xmcd
#
# Track frame offsets:
#	150
#	9727
#	23967
#	47701
#	60754
#	73090
#	98154
#	114482
#	145459
#
# Disc length: 2199 seconds
#
# Revision: 1
# Processed by: cddbd v1.5.1PL0 Copyright (c) Steve Scherf et al.
# Submitted via: audiograbber 1.83.01
#
DISCID=77089509
DTITLE=River City Blues Band - River City Blues Band
DYEAR=2000
DGENRE=Blues
TTITLE0=I've Been Had
TTITLE1=My Baby In New Orleans
TTITLE2=Got To Find A Baby
TTITLE3=Can't Stand The Pain
TTITLE4=Can't You See
TTITLE5=Steelworkin' Blues
TTITLE6=Treat Her Right
TTITLE7=Little Dirty
TTITLE8=Data Track
EXTD=
EXTT0=
EXTT1=
EXTT2=
EXTT3=
EXTT4=
EXTT5=
EXTT6=
EXTT7=
EXTT8=
PLAYORDER=
